# xmcd CD database file
#
# Track frame offsets:
#	150
#	58107
#	77960
#	96177
#	127515
#	171977
#	202402
#	219003
#	239904
#	263452
#
# Disc length: 3995 seconds
#
# Revision: 0
# Processed by: cddbd v1.5.2PL0 Copyright (c) Steve Scherf et al.
# Submitted via: CDex 1.70beta2
#
DISCID=8c0f990a
DTITLE=Klaus Lenz and Modern Jazz Big Band 65 - Die frühen Jahre
DYEAR=2007
DGENRE=Jazz
TTITLE0=Ein Nachmittag in Berlin
TTITLE1=Kleines Lied für Eric
TTITLE2=Serenade Mysterioso
TTITLE3=Watermelonman
TTITLE4=Peace
TTITLE5=Night in Tunesia
TTITLE6=The Preacher
TTITLE7=Sister Salvation
TTITLE8=You Come A Long Way From St. Louis
TTITLE9=Blues March
EXTD=YEAR: 2007
EXTT0=
EXTT1=
EXTT2=
EXTT3=
EXTT4=
EXTT5=
EXTT6=
EXTT7=
EXTT8=
EXTT9=
PLAYORDER=
